<mxfile host="app.diagrams.net" modified="2023-07-07T04:05:01.618Z" agent="Mozilla/5.0 (Windows NT 10.0; Win64; x64) AppleWebKit/537.36 (KHTML, like Gecko) Chrome/114.0.0.0 Safari/537.36" version="21.5.2" etag="eSviFfTnYzEBs11s26q2" type="github">
  <diagram name="Page-1" id="eqdmW_8G7ioAjh0PoDlE">
    <mxGraphModel>
      <root>
        <mxCell id="0" />
        <mxCell id="1" parent="0" />
      </root>
    </mxGraphModel>
  </diagram>
</mxfile>
